<?xml version="1.0" encoding="UTF-8" standalone="no"?>
<!DOCTYPE svg PUBLIC "-//W3C//DTD SVG 1.1//EN" "http://www.w3.org/Graphics/SVG/1.1/DTD/svg11.dtd">
<svg width="100%" height="100%" viewBox="0 0 200 45" version="1.1" xmlns="http://www.w3.org/2000/svg" xmlns:xlink="http://www.w3.org/1999/xlink" xml:space="preserve" style="fill-rule:evenodd;clip-rule:evenodd;stroke-linejoin:round;stroke-miterlimit:1.41421;">
    <g id="NUMBERS" transform="matrix(0.618628,-3.05007e-32,-3.02046e-32,0.624691,9.97936,8.44445)">
        <path d="M37.711,0.509L37.711,44.491L33.013,44.491C32.306,44.491 31.71,44.375 31.225,44.143C30.74,43.911 30.265,43.511 29.8,42.946L7.884,15.058C7.945,15.766 7.99,16.463 8.021,17.15C8.051,17.837 8.066,18.474 8.066,19.06L8.066,44.491L0.033,44.491L0.033,0.509L4.823,0.509C5.207,0.509 5.535,0.524 5.808,0.554C6.081,0.584 6.328,0.655 6.55,0.766C6.773,0.877 6.985,1.024 7.187,1.206C7.389,1.388 7.611,1.63 7.854,1.933L29.921,29.942C29.84,29.174 29.78,28.431 29.739,27.714C29.699,26.996 29.679,26.314 29.679,25.668L29.679,0.509L37.711,0.509ZM64.932,37.217C66.407,37.217 67.731,36.969 68.903,36.474C70.075,35.979 71.065,35.277 71.873,34.367C72.682,33.458 73.298,32.357 73.722,31.063C74.147,29.77 74.359,28.315 74.359,26.698L74.359,0.509L83.452,0.509L83.452,26.698C83.452,29.366 83.023,31.816 82.164,34.049C81.305,36.282 80.078,38.207 78.481,39.823C76.885,41.44 74.945,42.703 72.661,43.612C70.378,44.522 67.801,44.976 64.932,44.976C62.062,44.976 59.481,44.522 57.187,43.612C54.893,42.703 52.948,41.44 51.352,39.823C49.755,38.207 48.528,36.282 47.669,34.049C46.81,31.816 46.381,29.366 46.381,26.698L46.381,0.509L55.474,0.509L55.474,26.698C55.474,28.315 55.687,29.77 56.111,31.063C56.535,32.357 57.152,33.458 57.96,34.367C58.768,35.277 59.758,35.979 60.931,36.474C62.103,36.969 63.436,37.217 64.932,37.217ZM140.621,0.509L140.621,44.491L132.589,44.491L132.589,17.483C132.589,16.918 132.604,16.311 132.634,15.665C132.664,15.018 132.72,14.361 132.801,13.694L120.221,37.55C119.534,38.864 118.473,39.52 117.038,39.52L115.765,39.52C115.058,39.52 114.432,39.354 113.886,39.02C113.34,38.687 112.906,38.197 112.582,37.55L99.942,13.603C100.003,14.311 100.053,14.993 100.094,15.649C100.134,16.306 100.155,16.918 100.155,17.483L100.155,44.491L92.122,44.491L92.122,0.509L99.033,0.509C99.417,0.509 99.76,0.519 100.064,0.539C100.367,0.559 100.634,0.615 100.867,0.706C101.099,0.796 101.311,0.938 101.503,1.13C101.695,1.322 101.882,1.59 102.064,1.933L114.371,25.395C114.755,26.102 115.114,26.83 115.447,27.577C115.78,28.325 116.099,29.093 116.402,29.881C116.705,29.073 117.023,28.285 117.357,27.517C117.69,26.749 118.049,26.011 118.433,25.304L130.649,1.933C130.83,1.59 131.022,1.322 131.224,1.13C131.427,0.938 131.644,0.796 131.876,0.706C132.109,0.615 132.371,0.559 132.664,0.539C132.957,0.519 133.306,0.509 133.71,0.509L140.621,0.509ZM166.69,37.52C168.145,37.52 169.342,37.343 170.282,36.989C171.221,36.636 171.974,36.166 172.54,35.58C173.106,34.994 173.5,34.322 173.722,33.564C173.944,32.806 174.056,32.023 174.056,31.215C174.056,30.326 173.924,29.527 173.662,28.82C173.399,28.113 172.974,27.512 172.388,27.017C171.802,26.521 171.04,26.143 170.1,25.88C169.16,25.617 168.003,25.486 166.629,25.486L158.9,25.486L158.9,37.52L166.69,37.52ZM158.9,7.42L158.9,19.302L164.871,19.302C166.144,19.302 167.276,19.196 168.266,18.984C169.256,18.772 170.085,18.433 170.752,17.968C171.418,17.504 171.929,16.892 172.282,16.134C172.636,15.377 172.813,14.462 172.813,13.391C172.813,12.3 172.666,11.37 172.373,10.602C172.08,9.835 171.631,9.218 171.024,8.753C170.418,8.289 169.65,7.95 168.721,7.738C167.791,7.526 166.69,7.42 165.417,7.42L158.9,7.42ZM165.417,0.509C168.367,0.509 170.888,0.786 172.98,1.342C175.071,1.898 176.779,2.686 178.102,3.706C179.426,4.727 180.391,5.965 180.997,7.42C181.603,8.875 181.906,10.501 181.906,12.3C181.906,13.31 181.76,14.28 181.467,15.21C181.174,16.139 180.719,17.013 180.103,17.832C179.487,18.65 178.693,19.393 177.723,20.06C176.753,20.727 175.602,21.293 174.268,21.757C177.259,22.465 179.471,23.616 180.906,25.213C182.341,26.809 183.058,28.881 183.058,31.427C183.058,33.286 182.7,35.014 181.982,36.61C181.265,38.207 180.219,39.591 178.845,40.763C177.471,41.935 175.778,42.85 173.768,43.506C171.757,44.163 169.448,44.491 166.841,44.491L149.806,44.491L149.806,0.509L165.417,0.509ZM199.184,7.632L199.184,18.938L213.855,18.938L213.855,25.819L199.184,25.819L199.184,37.368L218.039,37.368L218.039,44.491L190.03,44.491L190.03,0.509L218.039,0.509L218.039,7.632L199.184,7.632ZM238.59,21.333C240.065,21.333 241.339,21.146 242.41,20.772C243.481,20.398 244.36,19.883 245.047,19.226C245.734,18.57 246.239,17.797 246.562,16.907C246.886,16.018 247.047,15.048 247.047,13.997C247.047,11.916 246.355,10.299 244.971,9.147C243.587,7.996 241.48,7.42 238.651,7.42L233.922,7.42L233.922,21.333L238.59,21.333ZM259.9,44.491L251.685,44.491C250.149,44.491 249.038,43.905 248.351,42.733L239.985,29.244C239.641,28.719 239.262,28.335 238.848,28.093C238.434,27.85 237.822,27.729 237.014,27.729L233.922,27.729L233.922,44.491L224.829,44.491L224.829,0.509L238.651,0.509C241.723,0.509 244.35,0.827 246.532,1.463C248.715,2.1 250.503,2.984 251.897,4.116C253.292,5.247 254.312,6.596 254.959,8.162C255.605,9.728 255.929,11.451 255.929,13.331C255.929,14.786 255.722,16.165 255.307,17.468C254.893,18.772 254.292,19.959 253.504,21.03C252.716,22.101 251.746,23.051 250.594,23.879C249.442,24.708 248.128,25.375 246.653,25.88C247.239,26.203 247.785,26.592 248.29,27.047C248.795,27.502 249.25,28.042 249.654,28.669L259.9,44.491ZM288.029,8.935C287.746,9.4 287.459,9.739 287.166,9.951C286.872,10.163 286.494,10.269 286.029,10.269C285.584,10.269 285.104,10.112 284.589,9.799C284.074,9.486 283.472,9.147 282.785,8.784C282.098,8.42 281.31,8.082 280.421,7.768C279.532,7.455 278.491,7.298 277.299,7.298C275.197,7.298 273.621,7.768 272.57,8.708C271.519,9.648 270.994,10.875 270.994,12.391C270.994,13.361 271.282,14.164 271.858,14.801C272.434,15.437 273.192,15.988 274.131,16.453C275.071,16.918 276.137,17.332 277.329,17.696C278.521,18.059 279.744,18.458 280.997,18.893C282.25,19.327 283.472,19.838 284.665,20.424C285.857,21.01 286.923,21.747 287.863,22.636C288.802,23.526 289.56,24.612 290.136,25.895C290.712,27.178 291,28.739 291,30.578C291,32.579 290.651,34.453 289.954,36.201C289.257,37.949 288.252,39.475 286.938,40.778C285.625,42.082 284.003,43.107 282.073,43.855C280.143,44.603 277.956,44.976 275.51,44.976C274.116,44.976 272.727,44.835 271.343,44.552C269.958,44.269 268.625,43.875 267.341,43.37C266.058,42.865 264.851,42.258 263.719,41.551C262.587,40.844 261.597,40.056 260.748,39.187L263.416,34.883C263.638,34.559 263.931,34.291 264.295,34.079C264.659,33.867 265.043,33.761 265.447,33.761C265.992,33.761 266.568,33.963 267.175,34.367C267.781,34.771 268.478,35.216 269.266,35.701C270.054,36.186 270.969,36.631 272.009,37.035C273.05,37.439 274.298,37.641 275.753,37.641C277.875,37.641 279.517,37.156 280.679,36.186C281.841,35.216 282.422,33.771 282.422,31.851C282.422,30.74 282.134,29.841 281.558,29.154C280.982,28.466 280.229,27.891 279.299,27.426C278.37,26.961 277.309,26.562 276.117,26.228C274.924,25.895 273.702,25.526 272.449,25.122C271.196,24.718 269.973,24.233 268.781,23.667C267.589,23.101 266.528,22.353 265.598,21.424C264.669,20.494 263.916,19.342 263.34,17.968C262.764,16.594 262.476,14.887 262.476,12.846C262.476,11.209 262.8,9.622 263.446,8.087C264.093,6.551 265.043,5.187 266.296,3.994C267.548,2.802 269.089,1.842 270.918,1.115C272.747,0.387 274.844,0.024 277.208,0.024C279.855,0.024 282.305,0.433 284.559,1.251C286.812,2.07 288.716,3.206 290.273,4.661L288.029,8.935Z" style="fill:white;"/>
    </g>
</svg>
